# xmcd
#
# Track frame offsets:
#	150
#	10594
#	21271
#	32240
#	43984
#	56570
#	66312
#	75120
#	85033
#	96383
#	111505
#	123271
#	133455
#	148367
#	160472
#	170860
#	180946
#	190061
#	201415
#	212119
#	223930
#	236171
#	250075
#	261243
#	274006
#	286337
#	300148
#	310923
#	320154
#	329975
#	344083
#
# Disc length: 4729 seconds
#
# Revision: 1
# Processed by: cddbd v1.5.2PL0 Copyright (c) Steve Scherf et al.
# Submitted via: audiograbber 1.83.01
#
DISCID=ed12771f
DTITLE=Jim Reeves - 31 All-Time Greatest Hits
DYEAR=1900
DGENRE=
TTITLE0=He'll Have to Go
TTITLE1=My Lips Are Sealed
TTITLE2=According to My Heart
TTITLE3=Am I Losing You
TTITLE4=Four Walls
TTITLE5=Blue Boy
TTITLE6=Home
TTITLE7=Partners
TTITLE8=I Missed Me
TTITLE9=The Blizzard
TTITLE10=Dark Moon
TTITLE11=Losing Your Love
TTITLE12=Blue Side of Lonesome
TTITLE13=Pride Goes Before A Fall
TTITLE14=Look Behind You, I'll Be There
TTITLE15=Is It Really Over
TTITLE16=I Won't Forget You
TTITLE17=Adios Amigo
TTITLE18=Welcome to My World
TTITLE19=In the Misty Moonlight
TTITLE20=A Letter to My Heart
TTITLE21=This Is It
TTITLE22=Anna Marie
TTITLE23=Distant Drums
TTITLE24=Can't Stop Loving You
TTITLE25=I Fall To Pieces
TTITLE26=Make the World Go Away
TTITLE27=TBilly Bayou
TTITLE28=Snow Flake
TTITLE29=Guilty
TTITLE30=Guess I'm Crazy
EXTD=
EXTT0=
EXTT1=
EXTT2=
EXTT3=
EXTT4=
EXTT5=
EXTT6=
EXTT7=
EXTT8=
EXTT9=
EXTT10=
EXTT11=
EXTT12=
EXTT13=
EXTT14=
EXTT15=
EXTT16=
EXTT17=
EXTT18=
EXTT19=
EXTT20=
EXTT21=
EXTT22=
EXTT23=
EXTT24=
EXTT25=
EXTT26=
EXTT27=
EXTT28=
EXTT29=
EXTT30=
PLAYORDER=
